# AST/ASF file generated using VICON BodyLanguage
# -----------------------------------------------
:version 1.10
:name VICON
:units
  mass 1.0
  length 0.45
  angle deg
:documentation
   .ast/.asf automatically generated from VICON data using
   VICON BodyBuilder and BodyLanguage model FoxedUp or BRILLIANT.MOD
:root
   order TX TY TZ RX RY RZ
   axis XYZ
   position 0 0 0  
   orientation 0 0 0 
:bonedata
  begin
     id 1 
     name lhipjoint
     direction 0.645897 -0.709066 0.282916 
     length 2.50918 
     axis 0 0 0  XYZ
  end
  begin
     id 2 
     name lfemur
     direction 0.34202 -0.939693 0  
     length 6.85725  
     axis 0 0 20  XYZ
    dof rx ry rz
    limits (-160.0 20.0)
           (-70.0 70.0)
           (-60.0 70.0)
  end
  begin
     id 3 
     name ltibia
     direction 0.34202 -0.939693 0   
     length 8.01778   
     axis 0 0 20   XYZ
    dof rx
    limits (-10.0 170.0)
  end
  begin
     id 4 
     name lfoot
     direction 0.0796011 -0.218702 0.972539   
     length 2.13962   
     axis -90 7.62852e-016 20   XYZ
    dof rx rz
    limits (-45.0 90.0)
           (-70.0 20.0)
  end
  begin
     id 5 
     name ltoes
     direction 1.53548e-011 -4.21881e-011 1   
     length 1.07476   
     axis -90 7.62852e-016 20   XYZ
    dof rx
    limits (-90.0 20.0)
  end
  begin
     id 6 
     name rhipjoint
     direction -0.63101 -0.720537 0.287493   
     length 2.46923  
     axis 0 0 0  XYZ 
  end
  begin
     id 7 
     name rfemur
     direction -0.34202 -0.939693 0   
     length 6.81957   
     axis 0 0 -20   XYZ
    dof rx ry rz
    limits (-160.0 20.0)
           (-70.0 70.0)
           (-70.0 60.0)
  end
  begin
     id 8 
     name rtibia
     direction -0.34202 -0.939693 0   
     length 8.15152   
     axis 0 0 -20   XYZ
    dof rx
    limits (-10.0 170.0)
 end
 begin
     id 9 
     name rfoot
     direction -0.105819 -0.290734 0.950934   
     length 2.14588  
     axis -90 -7.62852e-016 -20   XYZ
    dof rx rz
    limits (-45.0 90.0)
           (-20.0 70.0)
  end
  begin
     id 10 
     name rtoes
     direction -1.53512e-011 -4.22005e-011 1   
     length 1.0703   
     axis -90 -7.62852e-016 -20   XYZ
    dof rx
    limits (-90.0 20.0)
  end
  begin
     id 11 
     name lowerback
     direction 0.0114933 0.999236 0.0373542   
     length 1.91711   
     axis 0 0 0   XYZ
    dof rx ry rz
    limits (-20.0 45.0)
           (-30.0 30.0)
           (-30.0 30.0)
  end
  begin
     id 12 
     name upperback
     direction 0.00911529 0.998099 0.0609554   
     length 1.90888   
     axis 0 0 0   XYZ
    dof rx ry rz
    limits (-20.0 45.0)
           (-30.0 30.0)
           (-30.0 30.0)
  end
  begin
     id 13 
     name thorax
     direction 0.00357322 0.99911 0.0420379   
     length 1.90942   
     axis 0 0 0   XYZ
    dof rx ry rz
    limits (-20.0 45.0)
           (-30.0 30.0)
           (-30.0 30.0)
  end
  begin
     id 14 
     name lowerneck
     direction -0.0589311 0.997882 0.0275448   
     length 1.83956   
     axis 0 0 0   XYZ
    dof rx ry rz
    limits (-20.0 45.0)
           (-30.0 30.0)
           (-30.0 30.0)
  end
  begin
     id 15 
     name upperneck
     direction 0.0362633 0.960055 -0.277453   
     length 1.82031   
     axis 0 0 0   XYZ
    dof rx ry rz
    limits (-20.0 45.0)
           (-30.0 30.0)
           (-30.0 30.0)
  end
  begin
     id 16
     name head
     direction 0.0166719 0.995328 -0.0951042  
     length 1.86084  
     axis 0 0 0   XYZ
    dof rx ry rz
    limits (-20.0 45.0)
           (-30.0 30.0)
           (-30.0 30.0)
  end
  begin
     id 17 
     name lclavicle
     direction 0.90319 0.426238 0.0506919  
     length 3.17828  
     axis 0 0 0   XYZ
    dof ry rz
    limits (-20.0 10.0)
           (0.0 20.0)
  end
  begin
     id 18 
     name lhumerus
     direction 1 -4.48953e-011 6.78797e-028   
     length 5.43592   
     axis 180 -30 -90   XYZ
    dof rx ry rz
    limits (-60.0 90.0)
           (-90.0 90.0)
           (-90.0 90.0)
  end
  begin
     id 19
     name lradius
     direction 1 -4.48969e-011 7.02702e-027   
     length 3.2546   
     axis 180 -30 -90   XYZ
    dof rx
    limits (-10.0 170.0)
  end
  begin
     id 20
     name lwrist
     direction 1 -4.48975e-011 1.29807e-026   
     length 1.6273   
     axis -8.50346e-015 90 90   XYZ
    dof ry
    limits (-180.0 0.0)
 end
  begin
     id 21 
     name lhand
     direction 1 -4.48917e-011 2.59615e-026   
     length 0.498244   
     axis -1.65656e-014 90 90   XYZ
    dof rx rz
    limits (-90.0 90.0)
           (-45.0 45.0)
  end
  begin
     id 22 
     name lfingers
     direction 1 -4.48885e-011 5.1923e-026   
     length 0.401697   
     axis -3.31313e-014 90 90   XYZ
    dof rx
    limits (0.0 90.0)
  end
  begin
     id 23
     name lthumb
     direction 0.707107 -6.34946e-011 0.707107   
     length 0.576759   
     axis -90 45 2.85299e-015   XYZ
    dof rx rz
    limits (-45.0 45.0)
           (-45.0 45.0)
  end
  begin
     id 24 
     name rclavicle
     direction -0.908603 0.391432 0.145676   
     length 3.15477  
     axis 0 0 0   XYZ 
    dof ry rz
    limits (-10.0 20.0)
           (-20.0 0.0)
  end
  begin
     id 25 
     name rhumerus
     direction -1 -4.4898e-011 1.02852e-027  
     length 5.3383   
     axis 180 30 90   XYZ
    dof rx ry rz
    limits (-90.0 60.0)
           (-90.0 90.0)
           (-90.0 90.0)
  end
  begin
     id 26 
     name rradius
     direction -1 -4.48968e-011 7.05567e-027   
     length 3.23148   
     axis 180 30 90   XYZ
    dof rx
    limits (-10.0 170.0)
  end
  begin
     id 27 
     name rwrist
     direction -1 -4.48927e-011 1.29807e-026   
     length 1.61574   
     axis -8.50346e-015 -90 -90   XYZ
    dof ry
    limits (-180.0 0.0)
  end
  begin
     id 28
     name rhand
     direction -1 -4.48905e-011 2.59615e-026   
     length 0.463641   
     axis -1.65656e-014 -90 -90   XYZ
    dof rx rz
    limits (-90.0 90.0)
           (-45.0 45.0)
  end
  begin
     id 29
     name rfingers
     direction -1 -4.49167e-011 5.1923e-026   
     length 0.373799   
     axis -3.31313e-014 -90 -90   XYZ
    dof rx
    limits (0.0 90.0)
  end
  begin
     id 30
     name rthumb
     direction -0.707107 -6.34954e-011 0.707107   
     length 0.536703   
     axis -90 -45 -2.85299e-015   XYZ
    dof rx rz
    limits (-45.0 45.0)
           (-45.0 45.0)
  end
:hierarchy
  begin
    root lhipjoint rhipjoint lowerback
    lhipjoint lfemur
    lfemur ltibia
    ltibia lfoot
    lfoot ltoes
    rhipjoint rfemur
    rfemur rtibia
    rtibia rfoot
    rfoot rtoes
    lowerback upperback
    upperback thorax
    thorax lowerneck lclavicle rclavicle
    lowerneck upperneck
    upperneck head
    lclavicle lhumerus
    lhumerus lradius
    lradius lwrist
    lwrist lhand lthumb
    lhand lfingers
    rclavicle rhumerus
    rhumerus rradius
    rradius rwrist
    rwrist rhand rthumb
    rhand rfingers
  end

#!OML:ASF F:\VICON\USERDATA\INSTALL\rory3\rory3.ASF
:FULLY-SPECIFIED
:DEGREES
173
root 3.96515 17.3553 3.0741 20.0362 -6.10015 -5.44204
lowerback -6.89453 1.00968 7.63776
upperback -9.05552 1.159 1.5009
thorax -5.5382 0.158021 -2.66758
lowerneck -7.75498 9.27566 4.68868
upperneck 27.0982 10.8878 5.38075
head 9.83234 6.10541 2.24949
rclavicle -1.99406e-015 -1.03368e-014
rhumerus -4.63485 -16.2639 7.16018
rradius 112.894
rwrist -51.0901
rhand -4.32056 -44.4053
rfingers 7.12502
rthumb 21.4461 -73.2382
lclavicle -1.99406e-015 -1.03368e-014
lhumerus 24.0917 18.9118 -14.9508
lradius 29.5333
lwrist 23.8652
lhand -25.8464 -25.6891
lfingers 7.12502
lthumb 0.694088 4.28956
rfemur -6.77039 2.56605 5.36055
rtibia 19.7467
rfoot 1.32118 -26.8668
rtoes 3.39803
lfemur -33.8075 -1.42562 -20.7653
ltibia 33.5653
lfoot -17.3963 5.49502
ltoes 10.3382
174
root 3.97192 17.3532 3.06205 19.9937 -6.04203 -5.55387
lowerback -6.78741 1.01669 7.78035
upperback -9.02269 1.17472 1.53279
thorax -5.56247 0.15847 -2.71428
lowerneck -7.62503 9.15651 4.6159
upperneck 27.1961 10.7739 5.24537
head 9.84645 6.0311 2.19933
rclavicle -1.11257e-014 2.56432e-014
rhumerus -4.64252 -15.9785 6.98621
rradius 112.972
rwrist -51.3073
rhand -4.43692 -44.7223
rfingers 7.12502
rthumb 21.3343 -73.568
lclavicle -1.11257e-014 2.56432e-014
lhumerus 24.1054 18.8998 -14.5556
lradius 29.422
lwrist 23.4466
lhand -24.9452 -26.4694
lfingers 7.12502
lthumb 1.56453 3.5046
rfemur -6.82363 2.46095 5.4575
rtibia 19.8827
rfoot 1.18676 -26.6849
rtoes 3.14443
lfemur -33.858 -1.446 -20.6487
ltibia 33.6709
lfoot -17.4429 5.48816
ltoes 10.4558
175
root 3.97621 17.351 3.05235 20.0106 -6.01238 -5.52514
lowerback -6.77239 1.03293 7.75165
upperback -8.91618 1.19174 1.49089
thorax -5.45219 0.174002 -2.74227
lowerneck -7.96363 8.92858 4.55619
upperneck 27.3926 10.4643 5.14231
head 9.98553 5.8705 2.16968
rclavicle 5.70264e-015 2.78299e-015
rhumerus -4.80926 -15.7674 6.81894
rradius 112.99
rwrist -51.0619
rhand -4.8147 -44.8892
rfingers 7.12502
rthumb 20.9714 -73.7755
lclavicle 5.70264e-015 2.78299e-015
lhumerus 24.2944 19.3697 -13.9634
lradius 29.2529
lwrist 22.6241
lhand -25.6848 -26.2705
lfingers 7.12502
lthumb 0.850191 3.70753
rfemur -6.95116 2.3758 5.39397
rtibia 20.0123
rfoot 1.1212 -26.6713
rtoes 3.46679
lfemur -33.9471 -1.47451 -20.6795
ltibia 33.7303
lfoot -17.4708 5.40595
ltoes 10.9321
176
root 3.97827 17.3496 3.04413 20.0399 -6.01482 -5.37626
lowerback -6.63527 1.03188 7.56147
upperback -8.89687 1.2061 1.41746
thorax -5.50448 0.18887 -2.71534
lowerneck -8.36501 8.67842 4.51185
upperneck 27.7837 10.0992 5.09879
head 10.2068 5.69381 2.16355
rclavicle -4.24902e-015 -6.16232e-015
rhumerus -4.85164 -15.5253 6.55297
rradius 112.898
rwrist -50.6798
rhand -5.27368 -44.7998
rfingers 7.12502
rthumb 20.5304 -73.7342
lclavicle -4.24902e-015 -6.16232e-015
lhumerus 24.2534 19.3432 -13.8599
lradius 29.1969
lwrist 21.9695
lhand -26.1495 -25.9285
lfingers 7.12502
lthumb 0.401361 4.05091
rfemur -7.12128 2.34412 5.19789
rtibia 20.1882
rfoot 1.15598 -26.6268
rtoes 3.42054
lfemur -34.0301 -1.54806 -20.8346
ltibia 33.7479
lfoot -17.4914 5.4165
ltoes 10.8943
177
root 3.98076 17.3474 3.03645 20.0691 -6.04249 -5.32235
lowerback -6.48419 1.03507 7.46507
upperback -8.92933 1.22862 1.3908
thorax -5.62165 0.200283 -2.69147
lowerneck -8.43022 8.48631 4.41545
upperneck 28.0637 9.83822 5.09203
head 10.3176 5.56429 2.16373
rclavicle 2.11209e-015 1.33186e-014
rhumerus -4.72937 -15.2603 6.22874
rradius 112.795
rwrist -50.4153
rhand -6.07925 -44.937
rfingers 7.12502
rthumb 19.7562 -73.953
lclavicle 2.11209e-015 1.33186e-014
lhumerus 23.7225 18.3895 -14.4834
lradius 29.5325
lwrist 22.6635
lhand -25.1753 -26.188
lfingers 7.12502
lthumb 1.34224 3.78756
rfemur -7.2923 2.37202 5.09196
rtibia 20.3929
rfoot 1.83665 -26.3939
rtoes 1.82781
lfemur -34.0951 -1.56514 -20.9057
ltibia 33.7355
lfoot -17.4964 5.52921
ltoes 10.3507
178
root 3.98481 17.3461 3.02544 20.0847 -6.06523 -5.28252
lowerback -6.36231 0.99685 7.38671
upperback -8.90926 1.18968 1.37821
thorax -5.67192 0.183861 -2.66357
lowerneck -8.30023 8.41606 4.34007
upperneck 28.0302 9.78832 4.98513
head 10.281 5.52075 2.12367
rclavicle 1.25172e-014 2.00773e-014
rhumerus -4.52402 -15.0795 5.82077
rradius 112.695
rwrist -50.1018
rhand -6.50368 -44.8883
rfingers 7.12502
rthumb 19.3481 -73.9457
lclavicle 1.25172e-014 2.00773e-014
lhumerus 23.267 17.6512 -14.9196
lradius 29.8218
lwrist 23.3378
lhand -24.2977 -26.324
lfingers 7.12502
lthumb 2.18982 3.64449
rfemur -7.45177 2.35154 4.99775
rtibia 20.5733
rfoot 2.77002 -26.1022
rtoes -0.565054
lfemur -34.1485 -1.52422 -20.976
ltibia 33.7232
lfoot -17.489 5.4957
ltoes 10.3347
179
root 3.98931 17.3456 3.0134 20.0493 -6.10601 -5.1434
lowerback -6.22006 0.942376 7.19694
upperback -8.85071 1.12959 1.32171
thorax -5.69259 0.164033 -2.62031
lowerneck -8.21741 8.37751 4.33357
upperneck 27.9835 9.78578 4.81163
head 10.2569 5.49811 2.05758
rclavicle 1.73688e-014 -1.0138e-014
rhumerus -4.30226 -15.0589 5.36153
rradius 112.561
rwrist -50.0117
rhand -5.79034 -44.5318
rfingers 7.12502
rthumb 20.0339 -73.519
lclavicle 1.73688e-014 -1.0138e-014
lhumerus 23.0802 17.3912 -14.9224
lradius 29.8983
lwrist 23.1988
lhand -24.3218 -25.6814
lfingers 7.12502
lthumb 2.16659 4.28734
rfemur -7.57629 2.29268 4.79831
rtibia 20.7133
rfoot 3.63851 -25.887
rtoes -2.75527
lfemur -34.1733 -1.50079 -21.1561
ltibia 33.737
lfoot -17.4953 5.40481
ltoes 10.6586
